<svg width="149" height="30" viewBox="0 0 149 30" fill="none" xmlns="http://www.w3.org/2000/svg">
<g clip-path="url(#clip0_90:109)">
<path d="M40.0655 9.78034H41.6755L46.1805 20.2379H44.0535L43.0787 17.8451H38.5441L37.5988 20.2379H35.5161L40.0655 9.78034ZM42.4287 16.2499L40.8188 11.9959L39.1792 16.2499H42.4287Z" fill="white"/>
<path d="M48.1766 9.78034H50.3184L53.1691 17.6826L56.1083 9.78034H58.1174L53.8929 20.2379H52.283L48.1766 9.78034Z" fill="white"/>
<path d="M64.7685 9.78034H66.3789L70.8835 20.2379H68.7566L67.782 17.8451H63.2472L62.3017 20.2379H60.2194L64.7685 9.78034ZM67.1319 16.2499L65.522 11.9959L63.8824 16.2499H67.1319Z" fill="white"/>
<path d="M75 9.78034H76.8612V18.5541H81.3069V20.2379H75V9.78034Z" fill="white"/>
<path d="M88.9957 9.78034H90.606L95.1107 20.2379H92.9838L92.0091 17.8451H87.4744L86.5294 20.2379H84.4465L88.9957 9.78034ZM91.3591 16.2499L89.7492 11.9959L88.1096 16.2499H91.3591Z" fill="white"/>
<path d="M99.2272 9.78034H101.694L106.76 17.5497H106.79V9.78034H108.651V20.2379H106.288L101.118 12.2175H101.088V20.2379H99.2272V9.78034Z" fill="white"/>
<path d="M121.116 12.2322C120.732 11.8186 120.358 11.5429 119.993 11.4051C119.639 11.2672 119.279 11.1983 118.915 11.1983C118.374 11.1983 117.881 11.2968 117.438 11.4937C117.005 11.6808 116.631 11.9466 116.315 12.2913C116.001 12.6261 115.754 13.02 115.577 13.4729C115.409 13.9259 115.326 14.4133 115.326 14.9352C115.326 15.4965 115.409 16.0135 115.577 16.4861C115.754 16.9588 116.001 17.3675 116.315 17.7121C116.631 18.0568 117.005 18.3275 117.438 18.5245C117.881 18.7214 118.374 18.8199 118.915 18.8199C119.339 18.8199 119.747 18.7214 120.141 18.5245C120.545 18.3177 120.919 17.9927 121.264 17.5496L122.8 18.6427C122.327 19.2925 121.751 19.7652 121.071 20.0606C120.392 20.356 119.668 20.5037 118.9 20.5037C118.093 20.5037 117.349 20.3757 116.67 20.1197C116.001 19.8538 115.42 19.4846 114.927 19.0119C114.444 18.5294 114.065 17.9534 113.79 17.2838C113.514 16.6142 113.376 15.8707 113.376 15.0534C113.376 14.2164 113.514 13.4582 113.79 12.7787C114.065 12.0895 114.444 11.5036 114.927 11.021C115.42 10.5385 116.001 10.1693 116.67 9.91323C117.349 9.64736 118.093 9.51442 118.9 9.51442C119.609 9.51442 120.264 9.64244 120.865 9.89848C121.475 10.1446 122.041 10.5681 122.563 11.1687L121.116 12.2322Z" fill="white"/>
<path d="M127.003 9.78034H128.864V13.9457H133.753V9.78034H135.614V20.2379H133.753V15.6295H128.864V20.2379H127.003V9.78034Z" fill="white"/>
<path d="M140.905 9.78034H147.832V11.4642H142.766V14.0343H147.567V15.7181H142.766V18.5541H148.098V20.2379H140.905V9.78034Z" fill="white"/>
<path fill-rule="evenodd" clip-rule="evenodd" d="M15.0071 30C23.2913 30 30.0071 23.2843 30.0071 15C30.0071 6.71573 23.2913 0 15.0071 0C6.7228 0 0.00708008 6.71573 0.00708008 15C0.00708008 23.2843 6.7228 30 15.0071 30ZM10.4747 21.7957H6.95589C6.12159 21.7957 5.70442 21.7957 5.45459 21.6341C5.18459 21.4595 5.01424 21.1665 4.9962 20.8457C4.97946 20.5488 5.18607 20.1868 5.59931 19.4629L5.59949 19.4626L13.3038 5.96546C13.7231 5.2308 13.9328 4.86348 14.1996 4.72674C14.4878 4.57902 14.8296 4.57876 15.118 4.72609C15.385 4.86241 15.5951 5.22946 16.0155 5.96346L17.7924 9.06584L17.7925 9.06594C18.0982 9.59963 18.251 9.86652 18.3182 10.1481C18.3914 10.4546 18.3915 10.7739 18.3187 11.0805C18.2517 11.3621 18.0991 11.6292 17.7938 12.1632L13.1867 20.2228C12.877 20.7647 12.7221 21.0356 12.5099 21.2381C12.279 21.4585 11.9989 21.621 11.6928 21.7121C11.4115 21.7957 11.0993 21.7957 10.4747 21.7957ZM23.029 21.7957H18.9493C18.1074 21.7957 17.6864 21.7957 17.4358 21.6327C17.165 21.4566 16.9952 21.1614 16.9792 20.8391C16.9643 20.5407 17.1762 20.1772 17.5999 19.4503L19.6364 15.9564C20.0548 15.2387 20.264 14.8799 20.5288 14.7455C20.815 14.6002 21.1534 14.6 21.4399 14.7448C21.705 14.8788 21.9146 15.2374 22.3339 15.9543L22.334 15.9546L24.3773 19.4484C24.8026 20.1757 25.0152 20.5394 25.0007 20.838C24.985 21.1606 24.8153 21.4561 24.5443 21.6325C24.2937 21.7957 23.8721 21.7957 23.029 21.7957Z" fill="white"/>
</g>
<defs>
<clipPath id="clip0_90:109">
<rect width="148.099" height="30" fill="white"/>
</clipPath>
</defs>
</svg>
